<?xml version="1.0" encoding="UTF-8" standalone="no"?>
<!-- Created with Inkscape (http://www.inkscape.org/) -->

<svg
   xmlns:dc="http://purl.org/dc/elements/1.1/"
   xmlns:cc="http://creativecommons.org/ns#"
   xmlns:rdf="http://www.w3.org/1999/02/22-rdf-syntax-ns#"
   xmlns:svg="http://www.w3.org/2000/svg"
   xmlns="http://www.w3.org/2000/svg"
   xmlns:sodipodi="http://sodipodi.sourceforge.net/DTD/sodipodi-0.dtd"
   xmlns:inkscape="http://www.inkscape.org/namespaces/inkscape"
   width="157mm"
   height="101mm"
   viewBox="0 0 157 101"
   version="1.1"
   id="svg8"
   inkscape:version="0.92.4 (5da689c313, 2019-01-14)"
   sodipodi:docname="imageTemplate0.svg">
  <defs
     id="defs2">
    <marker
       inkscape:stockid="Arrow1Lend"
       orient="auto"
       refY="0"
       refX="0"
       id="Arrow1Lend"
       style="overflow:visible"
       inkscape:isstock="true">
      <path
         id="path4527"
         d="M 0,0 5,-5 -12.5,0 5,5 Z"
         style="fill:#000000;fill-opacity:1;fill-rule:evenodd;stroke:#000000;stroke-width:1.00000003pt;stroke-opacity:1"
         transform="matrix(-0.8,0,0,-0.8,-10,0)"
         inkscape:connector-curvature="0" />
    </marker>
  </defs>
  <sodipodi:namedview
     id="base"
     pagecolor="#ffffff"
     bordercolor="#666666"
     borderopacity="1.0"
     inkscape:pageopacity="0.0"
     inkscape:pageshadow="2"
     inkscape:zoom="0.98994949"
     inkscape:cx="-338.91263"
     inkscape:cy="454.73381"
     inkscape:document-units="mm"
     inkscape:current-layer="layer1"
     showgrid="false"
     inkscape:window-width="2736"
     inkscape:window-height="1699"
     inkscape:window-x="-13"
     inkscape:window-y="-13"
     inkscape:window-maximized="1"
     width="157mm"
     fit-margin-top="2.7755576e-17"
     fit-margin-left="0"
     fit-margin-right="0"
     fit-margin-bottom="0"
     showguides="true" />
  <metadata
     id="metadata5">
    <rdf:RDF>
      <cc:Work
         rdf:about="">
        <dc:format>image/svg+xml</dc:format>
        <dc:type
           rdf:resource="http://purl.org/dc/dcmitype/StillImage" />
        <dc:title></dc:title>
      </cc:Work>
    </rdf:RDF>
  </metadata>
  <g
     inkscape:label="Layer 1"
     inkscape:groupmode="layer"
     id="layer1"
     transform="translate(0,-196)">
    <path
       style="stroke:#000000;stroke-width:1.66499996;stroke-miterlimit:4;stroke-dasharray:none;stroke-opacity:1"
       id="path829"
       d="m 28.562646,245.39848 c 2.35881,1.57785 4.609076,3.31957 6.829337,5.08663 2.133571,1.64363 4.250727,3.30737 6.307053,5.04718 1.463892,1.15902 2.895685,2.35531 4.389652,3.4759 1.356465,0.99688 2.763684,1.92913 4.072911,2.98849 0.99383,0.78508 1.92524,1.63711 2.935554,2.4008 0.719979,0.6387 1.442522,1.27435 2.219376,1.84534 0.577709,0.52755 1.041894,1.15761 1.56533,1.73792 0.237001,0.29872 1.091293,1.20048 1.16668,1.54215 0.03323,0.15061 -0.003,0.30845 -0.0045,0.46268 -0.123719,0.17426 -0.191939,0.40637 -0.37116,0.52279 -1.361258,0.88424 -2.781488,1.67628 -4.207645,2.45151 -0.497052,0.27019 -2.115743,0.80467 -2.594594,0.96498 -1.335606,0.44715 -1.656255,0.53893 -2.999722,0.95672 -2.555078,0.87981 -5.187584,1.43601 -7.868515,1.73389 -1.562269,0.15574 -3.133042,0.17594 -4.701611,0.18039 -1.041514,-0.003 -2.083012,-0.0102 -3.124528,-0.0125 -0.952725,0.0302 -1.883026,-0.21945 -2.779776,-0.51572 -1.223351,-0.45663 -2.326238,-1.12869 -3.367662,-1.90547 -0.710821,-0.55844 -1.374462,-1.16643 -1.885555,-1.91907 -0.340318,-0.50116 -0.605716,-1.04185 -0.887931,-1.57594 -0.701744,-1.46254 -1.246905,-2.9882 -1.58228,-4.57458 -0.173535,-0.90337 -0.198845,-1.82648 -0.200927,-2.74376 0.0089,-1.07086 0.01733,-2.14169 0.01958,-3.2126 0.003,-0.8839 -0.0034,-1.7678 -0.0076,-2.6517 -0.02942,-0.89763 0.0051,-1.7801 0.17762,-2.66225 0.219581,-0.99668 0.537925,-1.9684 0.881306,-2.92839 0.274378,-0.8037 0.88211,-1.3738 1.486244,-1.93566 1.243999,-1.08425 2.933316,-1.80767 4.275355,-2.56427 1.04308,-0.58806 -2.073609,1.19819 -3.116393,1.78678 -0.157755,0.089 0.29418,-0.21271 0.428517,-0.33423 0.407299,-0.51232 0.315494,-0.70452 -0.04186,-1.16255 -0.168455,-0.16022 -0.322175,-0.32923 -0.498821,-0.48055 0,0 3.384224,-2.09822 3.384224,-2.09822 v 0 c 0.184978,0.17403 0.361178,0.35514 0.533024,0.5423 0.446636,0.57744 0.62085,0.94145 0.287838,1.6525 -0.921531,1.30317 -2.951514,1.93416 -4.068567,2.57999 -1.028721,0.59476 2.060903,-1.18365 3.083698,-1.78855 0.20111,-0.11894 -0.853374,0.40679 -0.598715,0.36451 -0.583248,0.53431 -1.236028,1.02552 -1.568112,1.7664 -0.35416,0.94519 -0.684545,1.90235 -0.91794,2.88509 -0.100951,0.42689 -0.168949,0.63309 -0.197609,1.07036 -0.03272,0.49921 0.03746,1.00495 0.0069,1.5049 -0.0048,0.88807 -0.01291,1.77613 -0.01469,2.66422 -0.0043,1.0677 -0.0074,2.13539 -0.0064,3.2031 0.0037,0.89678 -7.93e-4,1.79821 0.148204,2.68568 0.287234,1.56132 0.796486,3.06309 1.490562,4.49248 0.281427,0.51784 0.533993,1.02203 0.874136,1.50433 0.503806,0.71436 1.153901,1.28827 1.835819,1.82573 1.022892,0.74189 2.105263,1.38837 3.313594,1.78544 0.883084,0.26276 1.785086,0.4589 2.71321,0.41743 1.03737,0.006 2.074711,0.0148 3.112092,0.0191 1.544487,0.002 3.091114,-0.0217 4.628788,-0.18162 2.651778,-0.31148 5.251196,-0.89089 7.780123,-1.75844 1.475242,-0.4643 2.967929,-0.90935 4.403963,-1.48788 0.40527,-0.16327 1.543674,-0.80015 1.19689,-0.53437 -0.763603,0.58524 -1.633897,1.01663 -2.462969,1.50473 -0.153726,0.0905 0.290314,-0.20739 0.435472,-0.31108 0.0466,-0.0672 0.141505,-0.11987 0.139785,-0.20163 -0.0045,-0.2143 -0.93708,-1.27815 -1.114139,-1.47827 -0.505206,-0.56225 -0.964322,-1.16795 -1.530027,-1.67158 -0.757876,-0.5915 -1.477579,-1.22575 -2.200336,-1.85768 -1.007785,-0.76797 -1.930667,-1.63374 -2.922776,-2.42184 -1.31133,-1.04758 -2.699657,-1.99433 -4.052855,-2.98623 -1.494875,-1.12795 -2.931525,-2.32798 -4.386472,-3.50651 -2.030291,-1.7529 -4.120451,-3.43277 -6.244971,-5.07001 -1.954387,-1.55358 -3.936066,-3.13014 -6.044316,-4.47388 -0.279096,-0.17789 -0.57445,-0.32888 -0.861676,-0.49332 0,0 3.310765,-2.15213 3.310765,-2.15213 z"
       inkscape:connector-curvature="0" />
    <ellipse
       style="stroke:#000000;stroke-width:1.66499996;stroke-miterlimit:4;stroke-dasharray:none;stroke-opacity:1"
       id="path831"
       cx="69.490074"
       cy="227.77718"
       rx="21.648832"
       ry="21.114292" />
    <ellipse
       style="stroke:#000000;stroke-width:1.66499996;stroke-miterlimit:4;stroke-dasharray:none;stroke-opacity:1"
       id="path833"
       cx="105.30419"
       cy="263.1904"
       rx="7.4835467"
       ry="13.76438" />
  </g>
</svg>
